<mxfile host="app.diagrams.net" modified="2022-04-20T09:11:33.707Z" agent="5.0 (Macintosh; Intel Mac OS X 10_15_7) AppleWebKit/537.36 (KHTML, like Gecko) Chrome/100.0.4896.127 Safari/537.36" etag="jCbfeggZ4cG7k0J7lKwO" version="15.2.7" type="github">
  <diagram id="rWnsiP7QuSSRh8jgL5Og" name="Page-1">
    <mxGraphModel dx="1374" dy="801" grid="1" gridSize="10" guides="1" tooltips="1" connect="1" arrows="1" fold="1" page="1" pageScale="1" pageWidth="827" pageHeight="1169" math="0" shadow="0">
      <root>
        <mxCell id="0" />
        <mxCell id="1" parent="0" />
        <mxCell id="OWBR-wIOsk2GOevRnEyG-3" value="" style="rounded=0;whiteSpace=wrap;html=1;fillColor=#fff2cc;strokeColor=#d6b656;" parent="1" vertex="1">
          <mxGeometry x="200" y="270" width="120" height="860" as="geometry" />
        </mxCell>
        <mxCell id="OWBR-wIOsk2GOevRnEyG-4" value="&lt;font style=&quot;font-size: 14px&quot;&gt;同步主流程&lt;/font&gt;" style="text;html=1;strokeColor=none;fillColor=none;align=center;verticalAlign=middle;whiteSpace=wrap;rounded=0;" parent="1" vertex="1">
          <mxGeometry x="220" y="281" width="80" height="20" as="geometry" />
        </mxCell>
        <mxCell id="OWBR-wIOsk2GOevRnEyG-8" value="保司回传" style="shape=umlActor;verticalLabelPosition=bottom;verticalAlign=top;html=1;outlineConnect=0;" parent="1" vertex="1">
          <mxGeometry x="245" y="74" width="30" height="60" as="geometry" />
        </mxCell>
        <mxCell id="OWBR-wIOsk2GOevRnEyG-9" value="" style="shape=flexArrow;endArrow=classic;html=1;" parent="1" target="OWBR-wIOsk2GOevRnEyG-3" edge="1">
          <mxGeometry width="50" height="50" relative="1" as="geometry">
            <mxPoint x="260" y="160" as="sourcePoint" />
            <mxPoint x="300" y="160" as="targetPoint" />
            <Array as="points">
              <mxPoint x="260" y="220" />
            </Array>
          </mxGeometry>
        </mxCell>
        <mxCell id="OWBR-wIOsk2GOevRnEyG-17" value="中间件" style="edgeLabel;html=1;align=center;verticalAlign=middle;resizable=0;points=[];" parent="OWBR-wIOsk2GOevRnEyG-9" vertex="1" connectable="0">
          <mxGeometry x="-0.2" y="-2" relative="1" as="geometry">
            <mxPoint as="offset" />
          </mxGeometry>
        </mxCell>
        <mxCell id="OWBR-wIOsk2GOevRnEyG-24" style="edgeStyle=orthogonalEdgeStyle;rounded=0;orthogonalLoop=1;jettySize=auto;html=1;" parent="1" source="OWBR-wIOsk2GOevRnEyG-18" edge="1">
          <mxGeometry relative="1" as="geometry">
            <mxPoint x="240" y="207" as="targetPoint" />
          </mxGeometry>
        </mxCell>
        <mxCell id="OWBR-wIOsk2GOevRnEyG-18" value="1.生成request_no、request_at等信息&lt;br&gt;2.通过路由获取到配置信息等等" style="whiteSpace=wrap;html=1;aspect=fixed;align=center;fillColor=#d5e8d4;strokeColor=#82b366;" parent="1" vertex="1">
          <mxGeometry x="30" y="147" width="120" height="120" as="geometry" />
        </mxCell>
        <mxCell id="OWBR-wIOsk2GOevRnEyG-36" style="edgeStyle=orthogonalEdgeStyle;rounded=0;orthogonalLoop=1;jettySize=auto;html=1;entryX=0.5;entryY=0;entryDx=0;entryDy=0;" parent="1" source="OWBR-wIOsk2GOevRnEyG-30" target="OWBR-wIOsk2GOevRnEyG-34" edge="1">
          <mxGeometry relative="1" as="geometry" />
        </mxCell>
        <mxCell id="OWBR-wIOsk2GOevRnEyG-30" value="获取报文数据" style="rounded=1;whiteSpace=wrap;html=1;align=center;fillColor=#ffe6cc;strokeColor=#d79b00;" parent="1" vertex="1">
          <mxGeometry x="220" y="330" width="80" height="30" as="geometry" />
        </mxCell>
        <mxCell id="lfyAIOnCacNDml894RYi-14" value="是" style="edgeStyle=orthogonalEdgeStyle;rounded=0;orthogonalLoop=1;jettySize=auto;html=1;" edge="1" parent="1" source="OWBR-wIOsk2GOevRnEyG-34" target="lfyAIOnCacNDml894RYi-9">
          <mxGeometry relative="1" as="geometry" />
        </mxCell>
        <mxCell id="lfyAIOnCacNDml894RYi-16" style="edgeStyle=orthogonalEdgeStyle;rounded=0;orthogonalLoop=1;jettySize=auto;html=1;entryX=0;entryY=0.5;entryDx=0;entryDy=0;" edge="1" parent="1" source="OWBR-wIOsk2GOevRnEyG-34" target="OWBR-wIOsk2GOevRnEyG-42">
          <mxGeometry relative="1" as="geometry">
            <mxPoint x="140" y="590" as="targetPoint" />
            <Array as="points">
              <mxPoint x="130" y="415" />
              <mxPoint x="130" y="585" />
            </Array>
          </mxGeometry>
        </mxCell>
        <mxCell id="lfyAIOnCacNDml894RYi-17" value="否" style="edgeLabel;html=1;align=center;verticalAlign=middle;resizable=0;points=[];" vertex="1" connectable="0" parent="lfyAIOnCacNDml894RYi-16">
          <mxGeometry x="-0.0152" relative="1" as="geometry">
            <mxPoint y="1" as="offset" />
          </mxGeometry>
        </mxCell>
        <mxCell id="OWBR-wIOsk2GOevRnEyG-34" value="是否解密?" style="rhombus;whiteSpace=wrap;html=1;align=center;" parent="1" vertex="1">
          <mxGeometry x="232.5" y="390" width="55" height="50" as="geometry" />
        </mxCell>
        <mxCell id="OWBR-wIOsk2GOevRnEyG-48" style="edgeStyle=orthogonalEdgeStyle;rounded=0;orthogonalLoop=1;jettySize=auto;html=1;entryX=0.5;entryY=0;entryDx=0;entryDy=0;exitX=0.5;exitY=1;exitDx=0;exitDy=0;" parent="1" source="OWBR-wIOsk2GOevRnEyG-42" target="OWBR-wIOsk2GOevRnEyG-47" edge="1">
          <mxGeometry relative="1" as="geometry">
            <mxPoint x="260" y="628" as="sourcePoint" />
          </mxGeometry>
        </mxCell>
        <mxCell id="OWBR-wIOsk2GOevRnEyG-49" value="明文、密文各一份&lt;br&gt;,如有的话" style="edgeLabel;html=1;align=center;verticalAlign=middle;resizable=0;points=[];" parent="OWBR-wIOsk2GOevRnEyG-48" vertex="1" connectable="0">
          <mxGeometry x="0.0101" y="1" relative="1" as="geometry">
            <mxPoint as="offset" />
          </mxGeometry>
        </mxCell>
        <mxCell id="OWBR-wIOsk2GOevRnEyG-42" value="报文数据" style="rounded=1;whiteSpace=wrap;html=1;align=center;fillColor=#f8cecc;strokeColor=#b85450;" parent="1" vertex="1">
          <mxGeometry x="220" y="570" width="80" height="30" as="geometry" />
        </mxCell>
        <mxCell id="OWBR-wIOsk2GOevRnEyG-55" style="edgeStyle=orthogonalEdgeStyle;rounded=0;orthogonalLoop=1;jettySize=auto;html=1;entryX=0.5;entryY=0;entryDx=0;entryDy=0;" parent="1" source="OWBR-wIOsk2GOevRnEyG-47" target="OWBR-wIOsk2GOevRnEyG-54" edge="1">
          <mxGeometry relative="1" as="geometry" />
        </mxCell>
        <mxCell id="OWBR-wIOsk2GOevRnEyG-47" value="储存到本地,数据库" style="rounded=1;whiteSpace=wrap;html=1;align=center;fillColor=#ffe6cc;strokeColor=#d79b00;" parent="1" vertex="1">
          <mxGeometry x="220" y="693" width="80" height="30" as="geometry" />
        </mxCell>
        <mxCell id="OWBR-wIOsk2GOevRnEyG-53" style="edgeStyle=orthogonalEdgeStyle;rounded=0;orthogonalLoop=1;jettySize=auto;html=1;" parent="1" target="OWBR-wIOsk2GOevRnEyG-47" edge="1">
          <mxGeometry relative="1" as="geometry">
            <mxPoint x="150" y="708" as="sourcePoint" />
          </mxGeometry>
        </mxCell>
        <mxCell id="OWBR-wIOsk2GOevRnEyG-52" value="生成报文ID" style="text;html=1;strokeColor=#82b366;fillColor=#d5e8d4;align=center;verticalAlign=middle;whiteSpace=wrap;rounded=0;" parent="1" vertex="1">
          <mxGeometry x="100" y="687" width="50" height="40" as="geometry" />
        </mxCell>
        <mxCell id="OWBR-wIOsk2GOevRnEyG-66" style="edgeStyle=orthogonalEdgeStyle;rounded=0;orthogonalLoop=1;jettySize=auto;html=1;" parent="1" source="OWBR-wIOsk2GOevRnEyG-54" target="OWBR-wIOsk2GOevRnEyG-64" edge="1">
          <mxGeometry relative="1" as="geometry" />
        </mxCell>
        <mxCell id="OWBR-wIOsk2GOevRnEyG-54" value="构建响应报文" style="rounded=1;whiteSpace=wrap;html=1;align=center;fillColor=#ffe6cc;strokeColor=#d79b00;" parent="1" vertex="1">
          <mxGeometry x="220" y="788" width="80" height="30" as="geometry" />
        </mxCell>
        <mxCell id="lfyAIOnCacNDml894RYi-19" value="是" style="edgeStyle=orthogonalEdgeStyle;rounded=0;orthogonalLoop=1;jettySize=auto;html=1;entryX=0.5;entryY=0;entryDx=0;entryDy=0;" edge="1" parent="1" source="OWBR-wIOsk2GOevRnEyG-64" target="lfyAIOnCacNDml894RYi-18">
          <mxGeometry relative="1" as="geometry" />
        </mxCell>
        <mxCell id="lfyAIOnCacNDml894RYi-22" style="edgeStyle=orthogonalEdgeStyle;rounded=0;orthogonalLoop=1;jettySize=auto;html=1;entryX=0;entryY=0.5;entryDx=0;entryDy=0;" edge="1" parent="1" source="OWBR-wIOsk2GOevRnEyG-64" target="OWBR-wIOsk2GOevRnEyG-65">
          <mxGeometry relative="1" as="geometry">
            <Array as="points">
              <mxPoint x="170" y="873" />
              <mxPoint x="170" y="1025" />
            </Array>
          </mxGeometry>
        </mxCell>
        <mxCell id="OWBR-wIOsk2GOevRnEyG-64" value="是否加密?" style="rhombus;whiteSpace=wrap;html=1;align=center;" parent="1" vertex="1">
          <mxGeometry x="232.5" y="848" width="55" height="50" as="geometry" />
        </mxCell>
        <mxCell id="lfyAIOnCacNDml894RYi-21" style="edgeStyle=orthogonalEdgeStyle;rounded=0;orthogonalLoop=1;jettySize=auto;html=1;" edge="1" parent="1" source="OWBR-wIOsk2GOevRnEyG-65" target="OWBR-wIOsk2GOevRnEyG-74">
          <mxGeometry relative="1" as="geometry" />
        </mxCell>
        <mxCell id="OWBR-wIOsk2GOevRnEyG-65" value="响应报文" style="rounded=1;whiteSpace=wrap;html=1;align=center;fillColor=#f8cecc;strokeColor=#b85450;" parent="1" vertex="1">
          <mxGeometry x="220" y="1010" width="80" height="30" as="geometry" />
        </mxCell>
        <mxCell id="lfyAIOnCacNDml894RYi-41" value="推送队列,携带报文ID" style="edgeStyle=orthogonalEdgeStyle;rounded=0;orthogonalLoop=1;jettySize=auto;html=1;entryX=0;entryY=0.405;entryDx=0;entryDy=0;entryPerimeter=0;" edge="1" parent="1" target="OWBR-wIOsk2GOevRnEyG-77">
          <mxGeometry relative="1" as="geometry">
            <mxPoint x="260" y="1060" as="sourcePoint" />
          </mxGeometry>
        </mxCell>
        <mxCell id="OWBR-wIOsk2GOevRnEyG-74" value="响应" style="rounded=1;whiteSpace=wrap;html=1;align=center;fillColor=#f8cecc;strokeColor=#b85450;" parent="1" vertex="1">
          <mxGeometry x="220" y="1080" width="80" height="30" as="geometry" />
        </mxCell>
        <mxCell id="OWBR-wIOsk2GOevRnEyG-77" value="" style="rounded=0;whiteSpace=wrap;html=1;fillColor=#fff2cc;strokeColor=#d6b656;" parent="1" vertex="1">
          <mxGeometry x="500" y="267" width="120" height="603" as="geometry" />
        </mxCell>
        <mxCell id="OWBR-wIOsk2GOevRnEyG-78" value="&lt;font style=&quot;font-size: 14px&quot;&gt;异步主流程&lt;/font&gt;" style="text;html=1;strokeColor=none;fillColor=none;align=center;verticalAlign=middle;whiteSpace=wrap;rounded=0;" parent="1" vertex="1">
          <mxGeometry x="520" y="278" width="80" height="20" as="geometry" />
        </mxCell>
        <mxCell id="OWBR-wIOsk2GOevRnEyG-84" value="获取报文数据" style="rounded=1;whiteSpace=wrap;html=1;align=center;fillColor=#ffe6cc;strokeColor=#d79b00;" parent="1" vertex="1">
          <mxGeometry x="520" y="327" width="80" height="30" as="geometry" />
        </mxCell>
        <mxCell id="OWBR-wIOsk2GOevRnEyG-87" style="edgeStyle=orthogonalEdgeStyle;rounded=0;orthogonalLoop=1;jettySize=auto;html=1;entryX=1;entryY=0.5;entryDx=0;entryDy=0;" parent="1" target="OWBR-wIOsk2GOevRnEyG-84" edge="1">
          <mxGeometry relative="1" as="geometry">
            <mxPoint x="670" y="342" as="sourcePoint" />
          </mxGeometry>
        </mxCell>
        <mxCell id="OWBR-wIOsk2GOevRnEyG-86" value="通过报文ID" style="text;html=1;strokeColor=#82b366;fillColor=#d5e8d4;align=center;verticalAlign=middle;whiteSpace=wrap;rounded=0;" parent="1" vertex="1">
          <mxGeometry x="670" y="322" width="50" height="40" as="geometry" />
        </mxCell>
        <mxCell id="OWBR-wIOsk2GOevRnEyG-90" style="edgeStyle=orthogonalEdgeStyle;rounded=0;orthogonalLoop=1;jettySize=auto;html=1;entryX=0.5;entryY=0;entryDx=0;entryDy=0;" parent="1" edge="1">
          <mxGeometry relative="1" as="geometry">
            <mxPoint x="564" y="357" as="sourcePoint" />
            <mxPoint x="564" y="387" as="targetPoint" />
          </mxGeometry>
        </mxCell>
        <mxCell id="OWBR-wIOsk2GOevRnEyG-122" value="上传到云" style="rounded=1;whiteSpace=wrap;html=1;align=center;fillColor=#ffe6cc;strokeColor=#d79b00;" parent="1" vertex="1">
          <mxGeometry x="524" y="652" width="81" height="30" as="geometry" />
        </mxCell>
        <mxCell id="OWBR-wIOsk2GOevRnEyG-140" style="edgeStyle=orthogonalEdgeStyle;rounded=0;orthogonalLoop=1;jettySize=auto;html=1;entryX=0.5;entryY=0;entryDx=0;entryDy=0;exitX=0.5;exitY=1;exitDx=0;exitDy=0;" parent="1" source="OWBR-wIOsk2GOevRnEyG-122" target="OWBR-wIOsk2GOevRnEyG-139" edge="1">
          <mxGeometry relative="1" as="geometry">
            <mxPoint x="564" y="730" as="sourcePoint" />
          </mxGeometry>
        </mxCell>
        <mxCell id="OWBR-wIOsk2GOevRnEyG-146" value="报文ID" style="edgeStyle=orthogonalEdgeStyle;rounded=0;orthogonalLoop=1;jettySize=auto;html=1;entryX=0;entryY=0.5;entryDx=0;entryDy=0;" parent="1" source="OWBR-wIOsk2GOevRnEyG-139" target="OWBR-wIOsk2GOevRnEyG-144" edge="1">
          <mxGeometry relative="1" as="geometry" />
        </mxCell>
        <mxCell id="lfyAIOnCacNDml894RYi-7" value="报文ID" style="edgeStyle=orthogonalEdgeStyle;rounded=0;orthogonalLoop=1;jettySize=auto;html=1;entryX=0;entryY=0.5;entryDx=0;entryDy=0;" edge="1" parent="1" source="OWBR-wIOsk2GOevRnEyG-139" target="OWBR-wIOsk2GOevRnEyG-143">
          <mxGeometry relative="1" as="geometry" />
        </mxCell>
        <mxCell id="OWBR-wIOsk2GOevRnEyG-139" value="推送下游数据" style="rounded=1;whiteSpace=wrap;html=1;align=center;fillColor=#ffe6cc;strokeColor=#d79b00;" parent="1" vertex="1">
          <mxGeometry x="525" y="770" width="80" height="30" as="geometry" />
        </mxCell>
        <mxCell id="OWBR-wIOsk2GOevRnEyG-143" value="旧系统队列(获取数据推原报文)" style="whiteSpace=wrap;html=1;aspect=fixed;align=center;fillColor=#d5e8d4;strokeColor=#82b366;" parent="1" vertex="1">
          <mxGeometry x="720" y="675" width="80" height="80" as="geometry" />
        </mxCell>
        <mxCell id="OWBR-wIOsk2GOevRnEyG-144" value="新系统队列（推报文ID）" style="whiteSpace=wrap;html=1;aspect=fixed;align=center;fillColor=#d5e8d4;strokeColor=#82b366;" parent="1" vertex="1">
          <mxGeometry x="720" y="815" width="80" height="80" as="geometry" />
        </mxCell>
        <mxCell id="OWBR-wIOsk2GOevRnEyG-149" value="" style="whiteSpace=wrap;html=1;align=left;fillColor=#f5f5f5;strokeColor=#666666;fontColor=#333333;" parent="1" vertex="1">
          <mxGeometry x="550" y="10" width="270" height="220" as="geometry" />
        </mxCell>
        <mxCell id="OWBR-wIOsk2GOevRnEyG-151" value="主流程(可重写)" style="rounded=0;whiteSpace=wrap;html=1;align=left;fillColor=#fff2cc;strokeColor=#d6b656;" parent="1" vertex="1">
          <mxGeometry x="570" y="28" width="110" height="32" as="geometry" />
        </mxCell>
        <mxCell id="OWBR-wIOsk2GOevRnEyG-154" value="子流程(可重写)" style="rounded=0;whiteSpace=wrap;html=1;align=left;fillColor=#ffe6cc;strokeColor=#d79b00;" parent="1" vertex="1">
          <mxGeometry x="573" y="74" width="110" height="32" as="geometry" />
        </mxCell>
        <mxCell id="OWBR-wIOsk2GOevRnEyG-155" value="描述补充" style="rounded=0;whiteSpace=wrap;html=1;align=left;fillColor=#d5e8d4;strokeColor=#82b366;" parent="1" vertex="1">
          <mxGeometry x="570" y="120" width="110" height="30" as="geometry" />
        </mxCell>
        <mxCell id="OWBR-wIOsk2GOevRnEyG-156" value="模块颜色说明" style="text;html=1;strokeColor=none;fillColor=none;align=center;verticalAlign=middle;whiteSpace=wrap;rounded=0;" parent="1" vertex="1">
          <mxGeometry x="720" y="110" width="90" height="20" as="geometry" />
        </mxCell>
        <mxCell id="lfyAIOnCacNDml894RYi-5" style="edgeStyle=orthogonalEdgeStyle;rounded=0;orthogonalLoop=1;jettySize=auto;html=1;" edge="1" parent="1" source="lfyAIOnCacNDml894RYi-2" target="OWBR-wIOsk2GOevRnEyG-122">
          <mxGeometry relative="1" as="geometry" />
        </mxCell>
        <mxCell id="lfyAIOnCacNDml894RYi-2" value="明文、密文各一份，返回云的id&lt;br&gt;同步回数据库" style="whiteSpace=wrap;html=1;aspect=fixed;align=center;fillColor=#d5e8d4;strokeColor=#82b366;" vertex="1" parent="1">
          <mxGeometry x="670" y="572" width="80" height="80" as="geometry" />
        </mxCell>
        <mxCell id="lfyAIOnCacNDml894RYi-15" style="edgeStyle=orthogonalEdgeStyle;rounded=0;orthogonalLoop=1;jettySize=auto;html=1;" edge="1" parent="1" source="lfyAIOnCacNDml894RYi-9" target="OWBR-wIOsk2GOevRnEyG-42">
          <mxGeometry relative="1" as="geometry" />
        </mxCell>
        <mxCell id="lfyAIOnCacNDml894RYi-9" value="解密数据" style="rounded=1;whiteSpace=wrap;html=1;align=center;fillColor=#ffe6cc;strokeColor=#d79b00;" vertex="1" parent="1">
          <mxGeometry x="220" y="500" width="80" height="30" as="geometry" />
        </mxCell>
        <mxCell id="lfyAIOnCacNDml894RYi-12" value="实体" style="rounded=0;whiteSpace=wrap;html=1;align=left;fillColor=#f8cecc;strokeColor=#b85450;" vertex="1" parent="1">
          <mxGeometry x="570" y="170" width="110" height="30" as="geometry" />
        </mxCell>
        <mxCell id="lfyAIOnCacNDml894RYi-20" style="edgeStyle=orthogonalEdgeStyle;rounded=0;orthogonalLoop=1;jettySize=auto;html=1;entryX=0.5;entryY=0;entryDx=0;entryDy=0;" edge="1" parent="1" source="lfyAIOnCacNDml894RYi-18" target="OWBR-wIOsk2GOevRnEyG-65">
          <mxGeometry relative="1" as="geometry" />
        </mxCell>
        <mxCell id="lfyAIOnCacNDml894RYi-18" value="加密数据" style="rounded=1;whiteSpace=wrap;html=1;align=center;fillColor=#ffe6cc;strokeColor=#d79b00;" vertex="1" parent="1">
          <mxGeometry x="220" y="940" width="80" height="30" as="geometry" />
        </mxCell>
        <mxCell id="lfyAIOnCacNDml894RYi-30" value="是" style="edgeStyle=orthogonalEdgeStyle;rounded=0;orthogonalLoop=1;jettySize=auto;html=1;" edge="1" parent="1" source="lfyAIOnCacNDml894RYi-33" target="lfyAIOnCacNDml894RYi-36">
          <mxGeometry relative="1" as="geometry" />
        </mxCell>
        <mxCell id="lfyAIOnCacNDml894RYi-31" style="edgeStyle=orthogonalEdgeStyle;rounded=0;orthogonalLoop=1;jettySize=auto;html=1;entryX=0;entryY=0.5;entryDx=0;entryDy=0;" edge="1" parent="1" source="lfyAIOnCacNDml894RYi-33" target="lfyAIOnCacNDml894RYi-34">
          <mxGeometry relative="1" as="geometry">
            <mxPoint x="445" y="590" as="targetPoint" />
            <Array as="points">
              <mxPoint x="660" y="415" />
              <mxPoint x="660" y="585" />
            </Array>
          </mxGeometry>
        </mxCell>
        <mxCell id="lfyAIOnCacNDml894RYi-32" value="否" style="edgeLabel;html=1;align=center;verticalAlign=middle;resizable=0;points=[];" vertex="1" connectable="0" parent="lfyAIOnCacNDml894RYi-31">
          <mxGeometry x="-0.0152" relative="1" as="geometry">
            <mxPoint y="1" as="offset" />
          </mxGeometry>
        </mxCell>
        <mxCell id="lfyAIOnCacNDml894RYi-33" value="是否解密?" style="rhombus;whiteSpace=wrap;html=1;align=center;" vertex="1" parent="1">
          <mxGeometry x="537.5" y="390" width="55" height="50" as="geometry" />
        </mxCell>
        <mxCell id="lfyAIOnCacNDml894RYi-39" style="edgeStyle=orthogonalEdgeStyle;rounded=0;orthogonalLoop=1;jettySize=auto;html=1;" edge="1" parent="1" source="lfyAIOnCacNDml894RYi-34" target="OWBR-wIOsk2GOevRnEyG-122">
          <mxGeometry relative="1" as="geometry" />
        </mxCell>
        <mxCell id="lfyAIOnCacNDml894RYi-34" value="报文数据" style="rounded=1;whiteSpace=wrap;html=1;align=center;fillColor=#f8cecc;strokeColor=#b85450;" vertex="1" parent="1">
          <mxGeometry x="525" y="570" width="80" height="30" as="geometry" />
        </mxCell>
        <mxCell id="lfyAIOnCacNDml894RYi-38" style="edgeStyle=orthogonalEdgeStyle;rounded=0;orthogonalLoop=1;jettySize=auto;html=1;" edge="1" parent="1" source="lfyAIOnCacNDml894RYi-36" target="lfyAIOnCacNDml894RYi-34">
          <mxGeometry relative="1" as="geometry" />
        </mxCell>
        <mxCell id="lfyAIOnCacNDml894RYi-36" value="解密数据" style="rounded=1;whiteSpace=wrap;html=1;align=center;fillColor=#ffe6cc;strokeColor=#d79b00;" vertex="1" parent="1">
          <mxGeometry x="525" y="500" width="80" height="30" as="geometry" />
        </mxCell>
      </root>
    </mxGraphModel>
  </diagram>
</mxfile>
